<svg xmlns="http://www.w3.org/2000/svg" width="0" height="0">
  <!-- Loose Threads product art — one shared silhouette, six patterned instances.
       Use: <svg viewBox="0 0 200 170"><use href="socks.svg#sock-monday-heel"/></svg> -->
  <defs>
    <path id="sockP" d="M 121 18 L 179 18 Q 187 18 187 26 L 187 100
      C 187 124 180 140 160 146 L 60 146
      C 36 146 24 134 24 116 C 24 100 34 92 52 92 L 96 92
      C 108 92 113 86 113 72 L 113 26 Q 113 18 121 18 Z"/>
    <clipPath id="sockC"><use href="#sockP"/></clipPath>
    <g id="cloudG">
      <circle cx="-9" cy="0" r="7"/>
      <circle cx="1" cy="-4" r="9"/>
      <circle cx="11" cy="1" r="6.5"/>
      <rect x="-16" y="0" width="33" height="8" rx="4"/>
    </g>
    <g id="sockBase">
      <use href="#sockP" fill="#FDFCFA"/>
    </g>
    <g id="sockTop">
      <use href="#sockP" fill="none" stroke="#1B2A44" stroke-width="7" stroke-linejoin="round"/>
      <path d="M 116 46 L 184 46" fill="none" stroke="#1B2A44" stroke-width="5" stroke-linecap="round"/>
    </g>
  </defs>

  <symbol id="sock-monday-heel" viewBox="0 0 200 170">
    <use href="#sockBase"/>
    <g clip-path="url(#sockC)"><circle cx="193" cy="148" r="56" fill="#E8A33D"/></g>
    <use href="#sockTop"/>
  </symbol>

  <symbol id="sock-static-cling" viewBox="0 0 200 170">
    <use href="#sockBase"/>
    <g clip-path="url(#sockC)" stroke-linejoin="round" stroke-linecap="round" fill="none">
      <polyline stroke="#1B2A44" stroke-width="4.5" points="106 64 120 74 134 64 148 74 162 64 176 74 190 64"/>
      <polyline stroke="#E8A33D" stroke-width="5" points="14 106 30 118 46 106 62 118 78 106 94 118 110 106 126 118 142 106 158 118 174 106 190 118"/>
      <polyline stroke="#1B2A44" stroke-width="4.5" points="14 124 30 136 46 124 62 136 78 124 94 136 110 124 126 136 142 124 158 136 174 124 190 136"/>
    </g>
    <use href="#sockTop"/>
  </symbol>

  <symbol id="sock-argyle-karen" viewBox="0 0 200 170">
    <use href="#sockBase"/>
    <g clip-path="url(#sockC)">
      <path fill="#E8A33D" d="M 86 96 L 104 120 L 86 144 L 68 120 Z"/>
      <path fill="#1B2A44" d="M 130 96 L 148 120 L 130 144 L 112 120 Z"/>
      <path stroke="rgba(27,42,68,0.40)" fill="none" stroke-width="2.25" stroke-dasharray="5 5"
        d="M 50 106 L 122 134 M 50 134 L 122 106 M 94 106 L 166 134 M 94 134 L 166 106"/>
    </g>
    <use href="#sockTop"/>
  </symbol>

  <symbol id="sock-lucky-odd" viewBox="0 0 200 170">
    <use href="#sockBase"/>
    <g clip-path="url(#sockC)">
      <rect fill="#E8A33D" x="106" y="56" width="90" height="11"/>
      <rect fill="#1B2A44" x="106" y="76" width="90" height="5.5"/>
      <rect fill="#1B2A44" x="8" y="103" width="190" height="12" transform="rotate(-4 100 109)"/>
      <rect fill="#E8A33D" x="8" y="123" width="190" height="8" transform="rotate(2.5 100 127)"/>
    </g>
    <use href="#sockTop"/>
  </symbol>

  <symbol id="sock-off-duty-cloud" viewBox="0 0 200 170">
    <use href="#sockBase"/>
    <g clip-path="url(#sockC)" fill="#E8A33D">
      <use href="#cloudG" transform="translate(146 60) scale(0.85)"/>
      <use href="#cloudG" transform="translate(72 112)"/>
      <use href="#cloudG" transform="translate(122 128) scale(0.72)"/>
    </g>
    <use href="#sockTop"/>
  </symbol>

  <symbol id="sock-tuesdays-revenge" viewBox="0 0 200 170">
    <use href="#sockBase"/>
    <g clip-path="url(#sockC)">
      <path fill="#E8A33D" stroke="#1B2A44" stroke-width="4" stroke-linejoin="round"
        d="M 105 99 L 90 121 L 101 121 L 94 141 L 116 115 L 104 115 Z"/>
    </g>
    <use href="#sockTop"/>
  </symbol>
</svg>
