<svg xmlns="http://www.w3.org/2000/svg" width="340" height="240" viewBox="0 0 340 240" fill="none">
  <!-- Darn. empty-state glyph: yarn ball + threaded darning needle -->
  <defs><clipPath id="ballClip"><circle cx="78" cy="160" r="40"/></clipPath></defs>
  <circle cx="78" cy="160" r="43" stroke="#1B2A44" stroke-width="6"/>
  <g clip-path="url(#ballClip)" stroke="#1B2A44" stroke-width="4.5" stroke-linecap="round" fill="none" opacity="0.85">
    <path d="M30 146 C 58 128, 98 128, 126 146"/>
    <path d="M32 174 C 60 156, 98 158, 124 176"/>
    <path d="M52 122 C 84 138, 104 164, 110 192"/>
    <path d="M40 134 C 68 152, 86 176, 92 200"/>
  </g>
  <path d="M112 134 C 150 102, 162 148, 202 120 C 232 99, 247 72, 255.5 52 C 259 44, 264 39, 269 36"
        stroke="#E8A33D" stroke-width="5.5" stroke-linecap="round"/>
  <g transform="rotate(34 250 60)">
    <path d="M 250 132 C 245.5 100 245 80 245 52 Q 245 36 250 30 Q 255 36 255 52 C 255 80 254.5 100 250 132 Z"
          fill="#1B2A44"/>
    <ellipse cx="250" cy="50" rx="2.6" ry="8" fill="#F5F3EF"/>
  </g>
</svg>
